REM DIRINDEX 1\2,1\3
REM DIRNAME cjc052,folder01,folder02
TITLE ""
FILE "Disk3Track18.mp3" MP3
  TRACK 01 AUDIO
    TITLE "2:cjc052_1231"
    INDEX 01 00:00:00
  TRACK 02 AUDIO
    TITLE "2:cjc052_1232"
    INDEX 01 00:15:03
  TRACK 03 AUDIO
    TITLE "2:cjc052_1233"
    INDEX 01 00:21:33
  TRACK 04 AUDIO
    TITLE "2:cjc052_1234"
    INDEX 01 00:30:44
  TRACK 05 AUDIO
    TITLE "0:"
    INDEX 01 00:34:55
